<svg id="visual" viewBox="0 0 900 600" width="900" height="600" xmlns="http://www.w3.org/2000/svg" xmlns:xlink="http://www.w3.org/1999/xlink" version="1.1"><rect x="0" y="0" width="900" height="600" fill="#001220"></rect><defs><linearGradient id="grad1_0" x1="33.3%" y1="0%" x2="100%" y2="100%"><stop offset="20%" stop-color="#001220" stop-opacity="1"></stop><stop offset="80%" stop-color="#001220" stop-opacity="1"></stop></linearGradient></defs><defs><linearGradient id="grad2_0" x1="0%" y1="0%" x2="66.7%" y2="100%"><stop offset="20%" stop-color="#001220" stop-opacity="1"></stop><stop offset="80%" stop-color="#001220" stop-opacity="1"></stop></linearGradient></defs><g transform="translate(900, 0)"><path d="M0 486.7C-46.8 441.3 -93.6 395.9 -157.3 379.7C-221 363.5 -301.7 376.5 -344.2 344.2C-386.7 311.8 -391 234.1 -408.4 169.1C-425.7 104.2 -456.2 52.1 -486.7 0L0 0Z" fill="#0066FF"></path></g><g transform="translate(0, 600)"><path d="M0 -486.7C53.8 -442 107.7 -397.3 150 -362.2C192.4 -327.1 223.3 -301.6 277.9 -277.9C332.5 -254.2 410.9 -232.3 449.7 -186.3C488.5 -140.3 487.6 -70.1 486.7 0L0 0Z" fill="#0066FF"></path></g></svg>