<svg id="visual" viewBox="0 0 900 600" width="900" height="600" xmlns="http://www.w3.org/2000/svg" xmlns:xlink="http://www.w3.org/1999/xlink" version="1.1"><path d="M0 85L13.7 90C27.3 95 54.7 105 82 104C109.3 103 136.7 91 163.8 91C191 91 218 103 245.2 101C272.3 99 299.7 83 327 76C354.3 69 381.7 71 409 82C436.3 93 463.7 113 491 111C518.3 109 545.7 85 573 71C600.3 57 627.7 53 654.8 58C682 63 709 77 736.2 97C763.3 117 790.7 143 818 148C845.3 153 872.7 137 886.3 129L900 121L900 0L886.3 0C872.7 0 845.3 0 818 0C790.7 0 763.3 0 736.2 0C709 0 682 0 654.8 0C627.7 0 600.3 0 573 0C545.7 0 518.3 0 491 0C463.7 0 436.3 0 409 0C381.7 0 354.3 0 327 0C299.7 0 272.3 0 245.2 0C218 0 191 0 163.8 0C136.7 0 109.3 0 82 0C54.7 0 27.3 0 13.7 0L0 0Z" fill="#6198ff"></path><path d="M0 169L13.7 171C27.3 173 54.7 177 82 171C109.3 165 136.7 149 163.8 156C191 163 218 193 245.2 196C272.3 199 299.7 175 327 157C354.3 139 381.7 127 409 137C436.3 147 463.7 179 491 177C518.3 175 545.7 139 573 125C600.3 111 627.7 119 654.8 124C682 129 709 131 736.2 146C763.3 161 790.7 189 818 209C845.3 229 872.7 241 886.3 247L900 253L900 119L886.3 127C872.7 135 845.3 151 818 146C790.7 141 763.3 115 736.2 95C709 75 682 61 654.8 56C627.7 51 600.3 55 573 69C545.7 83 518.3 107 491 109C463.7 111 436.3 91 409 80C381.7 69 354.3 67 327 74C299.7 81 272.3 97 245.2 99C218 101 191 89 163.8 89C136.7 89 109.3 101 82 102C54.7 103 27.3 93 13.7 88L0 83Z" fill="#3c80ff"></path><path d="M0 355L13.7 365C27.3 375 54.7 395 82 393C109.3 391 136.7 367 163.8 362C191 357 218 371 245.2 372C272.3 373 299.7 361 327 348C354.3 335 381.7 321 409 336C436.3 351 463.7 395 491 400C518.3 405 545.7 371 573 360C600.3 349 627.7 361 654.8 361C682 361 709 349 736.2 345C763.3 341 790.7 345 818 359C845.3 373 872.7 397 886.3 409L900 421L900 251L886.3 245C872.7 239 845.3 227 818 207C790.7 187 763.3 159 736.2 144C709 129 682 127 654.8 122C627.7 117 600.3 109 573 123C545.7 137 518.3 173 491 175C463.7 177 436.3 145 409 135C381.7 125 354.3 137 327 155C299.7 173 272.3 197 245.2 194C218 191 191 161 163.8 154C136.7 147 109.3 163 82 169C54.7 175 27.3 171 13.7 169L0 167Z" fill="#0066ff"></path><path d="M0 565L13.7 556C27.3 547 54.7 529 82 518C109.3 507 136.7 503 163.8 503C191 503 218 507 245.2 511C272.3 515 299.7 519 327 528C354.3 537 381.7 551 409 558C436.3 565 463.7 565 491 556C518.3 547 545.7 529 573 519C600.3 509 627.7 507 654.8 509C682 511 709 517 736.2 522C763.3 527 790.7 531 818 537C845.3 543 872.7 551 886.3 555L900 559L900 419L886.3 407C872.7 395 845.3 371 818 357C790.7 343 763.3 339 736.2 343C709 347 682 359 654.8 359C627.7 359 600.3 347 573 358C545.7 369 518.3 403 491 398C463.7 393 436.3 349 409 334C381.7 319 354.3 333 327 346C299.7 359 272.3 371 245.2 370C218 369 191 355 163.8 360C136.7 365 109.3 389 82 391C54.7 393 27.3 373 13.7 363L0 353Z" fill="#0059dd"></path><path d="M0 601L13.7 601C27.3 601 54.7 601 82 601C109.3 601 136.7 601 163.8 601C191 601 218 601 245.2 601C272.3 601 299.7 601 327 601C354.3 601 381.7 601 409 601C436.3 601 463.7 601 491 601C518.3 601 545.7 601 573 601C600.3 601 627.7 601 654.8 601C682 601 709 601 736.2 601C763.3 601 790.7 601 818 601C845.3 601 872.7 601 886.3 601L900 601L900 557L886.3 553C872.7 549 845.3 541 818 535C790.7 529 763.3 525 736.2 520C709 515 682 509 654.8 507C627.7 505 600.3 507 573 517C545.7 527 518.3 545 491 554C463.7 563 436.3 563 409 556C381.7 549 354.3 535 327 526C299.7 517 272.3 513 245.2 509C218 505 191 501 163.8 501C136.7 501 109.3 505 82 516C54.7 527 27.3 545 13.7 554L0 563Z" fill="#004cbb"></path></svg>